<?xml version="1.0" encoding="UTF-8"?><svg id="Layer_1" xmlns="http://www.w3.org/2000/svg" viewBox="0 0 1080 1080"><defs><style>.cls-1{fill:#fff;stroke-width:0px;}</style></defs><path class="cls-1" d="m168.72,349.7c-3.23,1.47-6.32,3.16-9.3,5.05-2.3,1.28-4.6,1.64-6.88,1.06-2.28-.57-4.64-2.45-7.06-5.64-.75-1.29-1.67-2.86-2.78-4.72-1.11-1.86-2.24-3.83-3.39-5.92-1.15-2.08-2.26-4.14-3.32-6.17-1.06-2.03-2.01-3.92-2.86-5.67-1.54-3.53-2.16-5.97-1.88-7.31.28-1.34,1.16-2.73,2.63-4.15,3.8-2.55,8.11-5.01,12.91-7.37,4.81-2.36,9.83-4.64,15.07-6.85,5.24-2.2,10.51-4.22,15.84-6.04,5.31-1.82,10.39-3.47,15.22-4.96,2.58-.69,4.67-.49,6.27.63,1.59,1.11,3.28,3.25,5.06,6.41,2.12,4.06,3.82,7.59,5.09,10.62,1.27,3.03,2.51,5.94,3.73,8.73,1.5,3.38,2.56,6.73,3.16,10.05.6,3.33.46,7.09-.43,11.28-4.83,23.14-9.8,47.4-14.9,72.76-5.1,25.36-9.95,50.55-14.56,75.57,3.34-2.46,6.76-4.56,10.24-6.33,3.48-1.76,7.11-3.6,10.89-5.5,5.28-2.38,9.59-.54,12.93,5.51,1.99,3.44,3.81,6.79,5.45,10.06,1.64,3.27,3.06,6.63,4.25,10.07,1.6,3.84,2.17,6.61,1.72,8.31-.45,1.7-1.91,3.2-4.36,4.51-5.98,3.65-12.38,7.46-19.17,11.43-6.8,3.97-12.98,8.06-18.52,12.26-3.74,2.86-6.72,3.96-8.94,3.3-2.22-.66-4.42-1.97-6.59-3.93-2.17-1.96-4.28-4.01-6.33-6.15-2.05-2.14-4.51-4.76-7.4-7.85-1.99-2.63-3.92-5.57-5.79-8.79-1.87-3.22-2.53-7.38-1.98-12.47.84-8.36,2.17-18.78,4-31.27,1.83-12.49,3.91-25.87,6.25-40.16,2.34-14.28,4.9-28.85,7.68-43.71,2.78-14.85,5.62-28.84,8.52-41.95-3.75,2.06-7.23,3.82-10.46,5.29Z"/><path class="cls-1" d="m288.21,457.81c-7.05,3.55-13.13,7.29-18.25,11.24-.53,8.29-.92,15.92-1.16,22.86-.25,6.95-.47,13.82-.67,20.6-.22,3.57-.85,5.79-1.88,6.64-1.03.85-2.87.67-5.53-.54-1.46-.82-3.12-1.68-4.99-2.58-1.87-.89-3.75-2.03-5.64-3.4-1.55-1.28-2.86-2.42-3.95-3.4-1.08-.98-2.03-2.23-2.82-3.75-.8-1.52-1.45-3.51-1.96-5.97-.51-2.46-.81-5.85-.9-10.16.03-9.15.2-19.21.49-30.18.3-10.97.66-22.4,1.08-34.28.43-11.88.98-23.94,1.65-36.2.67-12.25,1.36-24.23,2.07-35.92.71-11.7,1.49-22.85,2.34-33.46.85-10.6,1.74-20.25,2.67-28.95.52-4.44,1.59-8.19,3.21-11.25,1.61-3.06,4.56-4.71,8.84-4.96,7.36-.88,13.47-.78,18.35.29,4.87,1.08,9.52,2.2,13.93,3.37,3.27,1.09,5.63,2.97,7.06,5.64,1.43,2.67,2.55,6.33,3.36,10.98,2.23,11.57,5.03,25.27,8.39,41.1,3.36,15.83,7.07,32.59,11.13,50.28,4.06,17.69,8.28,35.75,12.66,54.17,4.37,18.43,8.61,35.96,12.7,52.6.88,3.51,1.09,6.03.6,7.58-.49,1.54-2.03,2.59-4.65,3.13-2.62.54-5.1.94-7.46,1.18-2.36.25-4.94-.22-7.75-1.4-2.75-.88-4.85-2.32-6.31-4.35-1.46-2.02-3-5.76-4.6-11.2-1.67-5.75-3.44-11.96-5.3-18.64-1.86-6.67-3.76-13.9-5.69-21.68-6.97,3.53-13.98,7.07-21.03,10.61Zm-2.81-49.6c4.21-1.75,8.48-3.4,12.82-4.94-3.3-14.39-6.55-28.52-9.74-42.39-3.19-13.86-6.17-27.48-8.94-40.87-1.06,12.73-2.2,27.17-3.43,43.31-1.23,16.14-2.35,33.06-3.33,50.75,4.21-2.15,8.41-4.11,12.63-5.86Z"/><path class="cls-1" d="m386.81,456.89c.9,10.57,1.96,21.1,3.17,31.59.02,3.2-.32,5.44-1.02,6.71-.7,1.27-2.47,1.63-5.31,1.1-2.9-.84-5.77-1.69-8.59-2.55-2.82-.86-5.38-2.14-7.65-3.83-2.28-1.69-4.16-4.03-5.66-7.01-1.5-2.97-2.4-7.16-2.72-12.55.04-3.7-.26-9.01-.89-15.94-.63-6.93-1.47-14.86-2.52-23.79-1.05-8.93-2.26-18.46-3.63-28.61-1.38-10.14-2.76-20.28-4.13-30.43-1.38-10.14-2.69-19.98-3.94-29.51-1.25-9.53-2.32-17.97-3.2-25.33-.88-7.36-1.46-13.42-1.72-18.18-.26-4.76-.15-7.51.34-8.25,2.87-3.96,6.04-8.03,9.51-12.2,3.47-4.17,7.12-8.05,10.94-11.65,3.83-3.6,7.78-6.74,11.88-9.44,4.1-2.69,8.2-4.54,12.33-5.56,4.12-1.01,8.13-1,12.04.03,3.9,1.04,7.61,3.44,11.12,7.2,4.44,5.18,8.8,10.93,13.08,17.27,4.28,6.33,8.33,14.48,12.16,24.44,3.79,9.8,5.41,18.98,4.85,27.51-.56,8.54-1.93,16.81-4.13,24.8-1.81,6.79-4.38,13.54-7.72,20.25-3.35,6.71-7.18,13.16-11.52,19.35-4.34,6.19-9.02,12.02-14.07,17.47-5.05,5.46-10.27,10.27-15.66,14.43.88,11.21,1.77,22.1,2.67,32.66Zm8.03-103.58c3.84-6.65,6.73-13.22,8.67-19.72,1.94-6.5,2.97-12.57,3.09-18.21.12-5.64-.58-10.15-2.08-13.53-.72-1.93-2.04-3.27-3.96-3.99-1.92-.72-4.17-.74-6.75-.05-2.59.7-5.4,2.04-8.43,4.03-3.04,2-5.98,4.65-8.82,7.96.34,9.4.84,19.16,1.49,29.29.65,10.13,1.34,20.82,2.07,32.06,5.97-5.24,10.88-11.19,14.71-17.85Z"/><path class="cls-1" d="m495.73,434.34c.9,10.56,1.96,21.1,3.17,31.59.02,3.2-.32,5.44-1.02,6.71-.7,1.26-2.47,1.63-5.31,1.1-2.91-.84-5.77-1.69-8.59-2.55-2.82-.86-5.38-2.14-7.65-3.83-2.28-1.69-4.16-4.03-5.66-7.01-1.49-2.98-2.4-7.16-2.72-12.55.04-3.7-.26-9.01-.89-15.94-.63-6.93-1.47-14.86-2.52-23.79-1.05-8.93-2.26-18.46-3.64-28.61-1.38-10.14-2.76-20.28-4.13-30.43-1.38-10.14-2.69-19.98-3.94-29.51-1.25-9.53-2.32-17.97-3.2-25.33-.88-7.36-1.46-13.42-1.72-18.18-.26-4.76-.15-7.51.34-8.25,2.87-3.96,6.04-8.03,9.51-12.2,3.47-4.17,7.12-8.05,10.94-11.65,3.83-3.6,7.79-6.75,11.89-9.44,4.1-2.69,8.2-4.55,12.32-5.56,4.12-1.01,8.13-1,12.04.03,3.9,1.04,7.61,3.44,11.12,7.2,4.44,5.18,8.8,10.93,13.08,17.27,4.28,6.33,8.33,14.48,12.16,24.44,3.79,9.8,5.41,18.97,4.85,27.51-.56,8.54-1.93,16.81-4.13,24.8-1.8,6.79-4.38,13.54-7.72,20.25-3.35,6.71-7.18,13.16-11.52,19.35-4.34,6.19-9.03,12.02-14.07,17.47-5.05,5.46-10.27,10.27-15.66,14.43.88,11.21,1.77,22.1,2.67,32.66Zm8.04-103.58c3.84-6.65,6.73-13.22,8.67-19.73,1.94-6.5,2.97-12.56,3.09-18.21.11-5.64-.58-10.15-2.08-13.53-.72-1.93-2.04-3.27-3.95-3.99-1.92-.72-4.17-.74-6.75-.05-2.58.7-5.39,2.04-8.43,4.03-3.04,1.99-5.98,4.65-8.82,7.96.34,9.4.84,19.16,1.49,29.29.65,10.13,1.34,20.82,2.06,32.06,5.97-5.24,10.88-11.19,14.72-17.85Z"/><path class="cls-1" d="m585.06,235.23c1,2.12,1.62,5.32,1.87,9.6.3,7.64.79,16.6,1.48,26.89.69,10.29,1.47,21.24,2.35,32.85.88,11.61,1.85,23.68,2.93,36.21,1.07,12.53,2.13,24.83,3.18,36.89,1.05,12.05,2.13,23.66,3.24,34.83,1.11,11.16,2.11,21.22,3,30.18.27,3.63.05,6.04-.67,7.24-.72,1.19-2.51,1.44-5.38.75-2.9-.84-5.74-1.74-8.5-2.69-2.77-.95-5.44-2.28-8.05-3.99-2.78-1.83-4.81-4.06-6.08-6.68-1.26-2.63-2.3-6.66-3.11-12.11-1.09-6.83-2.31-15.41-3.64-25.72-1.33-10.31-2.68-21.47-4.04-33.46-1.36-11.99-2.74-24.5-4.16-37.52-1.41-13.02-2.71-25.67-3.88-37.94-1.18-12.27-2.2-23.81-3.08-34.62-.88-10.81-1.55-20.09-2.04-27.85-.16-4.62.37-7.54,1.56-8.75,1.19-1.21,3.3-1.48,6.33-.83,3.02.66,6.41,1.88,10.15,3.67,3.74,1.79,7.14,3.9,10.21,6.31,3.22,2.39,5.33,4.64,6.33,6.75Z"/><path class="cls-1" d="m666.35,264.01c-1.86-21.76-3.4-41.41-4.63-58.97-.31-4.59.16-7.57,1.4-8.95,1.24-1.38,3.37-1.74,6.39-1.08,1.51.33,2.85.61,4.03.85,1.17.24,2.38.63,3.61,1.18,1.23.55,2.54,1.24,3.92,2.08,1.38.84,3.09,1.93,5.13,3.27,3.22,2.38,5.36,4.95,6.41,7.7,1.05,2.75,1.71,6.35,1.99,10.78.61,8.38,1.34,17.69,2.18,27.95.84,10.26,1.76,21.1,2.76,32.52,1,11.43,2.1,23.11,3.29,35.06,1.19,11.95,2.35,23.78,3.5,35.5,1.14,11.72,2.29,23.07,3.44,34.06,1.15,10.99,2.22,21.2,3.21,30.62,1.1,7.63-1.36,10.87-7.38,9.71-2.65-.41-5.31-1.03-7.96-1.84-2.66-.81-5.39-1.81-8.2-3-5.13-2.31-9.53-7.65-13.19-16.04-2.63-5.71-5.48-12.34-8.57-19.88-3.09-7.54-6.24-15.59-9.45-24.16-3.22-8.56-6.5-17.43-9.84-26.6-3.34-9.17-6.59-18.25-9.73-27.23,1.09,11.49,2.17,23.1,3.24,34.83,1.06,11.74,2.12,23.03,3.16,33.88,1.04,10.85,2.04,21.08,2.98,30.67.94,9.59,1.85,18.07,2.74,25.43.42,3.6.22,5.89-.62,6.87-.84.97-2.71,1.04-5.61.2-2.72-.72-5.47-1.43-8.27-2.14-2.79-.7-5.57-2.29-8.33-4.77-2.6-1.71-4.54-3.91-5.82-6.62-1.28-2.7-2.23-6.72-2.85-12.04-.77-5.29-1.72-12.56-2.83-21.8-1.11-9.24-2.34-19.65-3.7-31.24-1.36-11.59-2.7-23.9-4.04-36.95-1.34-13.04-2.64-25.92-3.91-38.66-1.27-12.73-2.38-24.86-3.32-36.37-.94-11.52-1.66-21.56-2.14-30.12-.22-4.93.4-8.15,1.85-9.65,1.45-1.5,3.61-1.91,6.49-1.22,3.58,1.03,7.12,2.06,10.63,3.09,3.5,1.04,7.25,2.67,11.24,4.89,3.18,1.43,5.67,3.56,7.46,6.4,1.79,2.84,3.61,7.2,5.47,13.07,1.42,4.52,3.29,10.47,5.62,17.85,2.33,7.38,4.91,15.43,7.77,24.14,2.85,8.72,5.81,17.81,8.9,27.28,3.08,9.47,6.09,18.56,9.01,27.25-3.09-23.43-5.56-46.02-7.41-67.78Z"/><path class="cls-1" d="m800.63,270.99c-.61,1.33-2.19,2.02-4.75,2.07-6.97-.32-12.58-2.85-16.85-7.58-4.27-4.73-7.6-11.34-10-19.83-.51-1.66-.95-3.25-1.35-4.78-.4-1.52-.78-3.21-1.17-5.05-.35-1.69-.74-3.37-1.17-5.05-.43-1.68-.9-3.34-1.4-5.01-.95-3.01-1.84-5.55-2.66-7.63-.83-2.07-1.76-3.25-2.77-3.52-2.04-.54-3.94,1.34-5.69,5.63-1.76,4.3-3.23,10.18-4.41,17.64-1.18,7.47-2.06,16.19-2.64,26.18-.58,9.99-.72,20.33-.44,31.02.09,8.97.68,18.23,1.78,27.79,1.1,9.56,2.56,18.36,4.38,26.41,1.82,8.05,3.87,14.81,6.12,20.27,2.25,5.47,4.6,8.68,7.04,9.61,2.1.85,3.93.19,5.49-1.98,1.56-2.16,2.9-5.33,4.05-9.5,1.14-4.17,2.03-9.16,2.67-14.99.64-5.83,1.07-12.05,1.3-18.68-5.72,1.83-10.66.8-14.83-3.07-4.17-3.87-8.16-10.71-11.95-20.51-.94-2.21-1.32-4.06-1.15-5.54.17-1.48.72-2.71,1.64-3.71.91-.99,2.1-1.88,3.54-2.66,1.44-.78,3.04-1.59,4.79-2.43,3.25-2.12,6.7-4.03,10.36-5.76,3.65-1.72,6.79-3.25,9.4-4.59,3.07-1.44,5.74-1.91,8.01-1.42,2.27.49,4.61,2.34,7.04,5.52,1.68,1.9,3.32,4.05,4.94,6.44,1.62,2.39,3.11,4.57,4.48,6.53,2.55,3.8,4.25,7.35,5.09,10.62.84,3.28,1.37,7.38,1.59,12.31.3,17.75-.61,33.1-2.74,46.05-2.13,12.96-5.28,23.32-9.45,31.08-5.7,9.68-13.37,14.08-23.02,13.19-8.6-.47-17.09-3.12-25.47-7.96-3.19-2.23-6.5-5.43-9.93-9.62-3.43-4.18-6.34-8.92-8.71-14.2-4.09-8.14-7.61-17.6-10.57-28.38-2.95-10.78-5.28-22.21-6.98-34.29-1.7-12.08-2.78-24.49-3.25-37.23-.47-12.74-.26-25.09.63-37.07.89-11.98,2.5-23.18,4.83-33.61,2.33-10.43,5.43-19.49,9.29-27.19,2.34-4.97,5.43-8.26,9.27-9.86,3.84-1.6,7.46-2.35,10.85-2.25,4.84.12,10,1.22,15.48,3.29,5.48,2.08,10.32,5.08,14.5,9.03,3.94,3.52,7.16,7.66,9.67,12.44,2.51,4.77,4.74,10.33,6.7,16.66,1.04,3.48,2.04,7.36,3.01,11.65.97,4.29,1.87,8.64,2.7,13.04.83,4.4,1.55,8.63,2.14,12.67.6,4.05,1.03,7.49,1.29,10.32.12,3.67-.13,6.16-.73,7.49Z"/><path class="cls-1" d="m644.39,569.52c-7.15,1.17-14.49,2.4-22.02,3.7-3.12,23.9-6.37,49.16-9.74,75.79-3.38,26.63-6.76,53.45-10.13,80.47-3.38,27.02-6.56,53.84-9.55,80.47-2.99,26.63-5.65,52.02-7.99,76.18-.26,4.67-1.04,7.85-2.34,9.54-1.3,1.69-3.06,2.4-5.26,2.14-2.21-.26-4.81-1.24-7.79-2.92-2.99-1.69-6.3-3.57-9.93-5.65-3.64-2.08-6.89-4.29-9.74-6.63-2.86-2.34-5.26-5.13-7.21-8.38-1.95-3.24-3.31-7.21-4.09-11.88-.78-4.67-.78-10.26,0-16.75.78-15.59,2.08-34.29,3.9-56.12,1.81-21.82,3.9-44.62,6.23-68.39,2.34-23.77,4.87-47.41,7.6-70.92,2.73-23.51,5.39-44.88,7.99-64.1-4.42,1.31-8.76,2.47-13.05,3.51-4.29,1.04-7.86,2.21-10.72,3.51-3.9,1.82-7.08,2.14-9.54.97-2.47-1.17-5.13-4.74-7.99-10.71-3.12-5.97-5.91-13.25-8.38-21.82-2.47-8.57-4.48-15.84-6.04-21.82-1.56-5.97-1.82-10-.78-12.08,1.03-2.08,2.98-3.76,5.85-5.07,8.83-3.12,18.9-5.97,30.2-8.57,11.3-2.59,22.8-4.93,34.49-7.01,11.69-2.08,23.18-3.83,34.48-5.26,11.3-1.42,21.37-2.4,30.2-2.92,4.42,0,7.73.78,9.94,2.34,2.2,1.56,4.09,4.03,5.65,7.41,3.12,5.98,5.78,12.54,7.99,19.68,2.2,7.15,3.96,14.1,5.26,20.85,1.03,6.23,1.17,10.46.39,12.66-.78,2.21-3.51,3.7-8.18,4.48-5.98,1.04-12.54,2.14-19.68,3.31Z"/><path class="cls-1" d="m842.73,603.03c-3.25,17.02-6.95,35.33-11.1,54.95-4.16,19.62-8.57,39.88-13.25,60.79-4.68,20.91-9.42,41.44-14.22,61.57-4.81,20.13-9.42,39.23-13.83,57.28-4.42,18.06-8.44,33.97-12.08,47.74-2.6,8.31-5.52,13.57-8.77,15.78-3.25,2.2-7.86,1.62-13.83-1.75-5.98-3.38-11.56-6.76-16.76-10.13-5.2-3.37-10.66-7.79-16.37-13.25-6.23-5.71-10.91-13.31-14.03-22.79-3.12-9.48-5.2-18.25-6.24-26.3-4.67-43.64-8.51-90.85-11.49-141.65-2.99-50.78-5.26-104.37-6.82-160.74,0-7.02.52-11.95,1.56-14.81,1.03-2.86,3.76-4.29,8.18-4.29s8.44.53,12.08,1.56c3.63,1.04,7.53,2.99,11.69,5.85,9.61,6.23,15.06,17.92,16.37,35.07.78,13.51,1.62,29.03,2.53,46.56.91,17.54,1.95,36.37,3.12,56.5,1.17,20.14,2.4,41.25,3.7,63.32,1.3,22.08,2.73,44.42,4.29,67.02,10.91-44.68,21.3-90.14,31.18-136.38,9.87-46.24,19.35-90.79,28.45-133.66,1.03-4.68,2.53-7.86,4.48-9.55,1.95-1.69,4.15-2.2,6.62-1.56,2.47.65,5.13,2.08,7.99,4.29,2.86,2.21,5.71,4.87,8.57,7.99,3.12,2.86,5.91,5.84,8.38,8.96,2.47,3.12,4.48,6.5,6.04,10.13,1.56,3.64,2.47,7.73,2.73,12.27.25,4.55-.26,9.81-1.56,15.78-1.82,11.95-4.35,26.44-7.6,43.45Z"/><path class="cls-1" d="m852.66,835.47c1.82-6.23,4.23-11.43,7.21-15.59,2.98-4.15,6.63-6.88,10.91-8.18,4.29-1.3,9.15-.39,14.61,2.73,4.68,2.34,8.44,5.78,11.3,10.33,2.86,4.55,5,9.49,6.43,14.81,1.42,5.33,2.2,10.66,2.34,15.98.13,5.33-.19,10.07-.97,14.22-.52,3.12-1.5,6.76-2.92,10.91-1.43,4.16-3.25,8.05-5.46,11.69-2.21,3.64-4.87,6.75-7.99,9.35-3.12,2.59-6.62,3.9-10.52,3.9-8.05.25-14.88-4.03-20.46-12.86-5.58-8.83-8.12-21.43-7.6-37.8.26-6.75,1.3-13.25,3.12-19.48Zm95.47-319.14c1.03,4.94.91,10.91-.39,17.92-3.64,20.52-7.28,41.7-10.91,63.52-3.64,21.82-7.21,43.64-10.71,65.46-3.51,21.82-6.82,43.13-9.93,63.91-3.12,20.78-5.85,40.53-8.18,59.23-.78,6.76-2.09,10.98-3.9,12.66-1.82,1.69-4.67,1.63-8.57-.19-8.57-2.86-16.63-7.92-24.16-15.2-3.9-3.9-6.43-8.12-7.6-12.66-1.17-4.54-1.24-11.36-.19-20.46,1.56-17.66,3.64-37.86,6.24-60.59,2.59-22.73,5.32-45.85,8.18-69.36,2.86-23.51,5.84-46.37,8.96-68.58,3.12-22.21,5.97-41.76,8.57-58.65,1.3-8.05,3.05-12.99,5.26-14.81,2.2-1.81,5.78-1.3,10.72,1.56,4.41,2.08,9.28,5,14.61,8.76,5.32,3.77,10.06,8.12,14.22,13.05,4.15,4.68,6.75,9.49,7.79,14.42Z"/></svg>