<?xml version="1.0" encoding="UTF-8"?>
<svg id="Layer_1" xmlns="http://www.w3.org/2000/svg" viewBox="0 0 1920 1080"><defs><style>.cls-1{clip-path:url(#clippath);}.cls-2{fill:none;}.cls-2,.cls-3,.cls-4,.cls-5,.cls-6,.cls-7,.cls-8,.cls-9,.cls-10,.cls-11{strokeWidth:0px;}.cls-12{clip-path:url(#clippath-1);}.cls-4{fill:#f9aa4b;}.cls-5{fill:#4699f2;}.cls-6{fill:#56a6e8;}.cls-7{fill:#414b82;}.cls-8{fill:#2176c7;}.cls-9{fill:#165e9e;}.cls-10{fill:#64afff;}.cls-11{fill:#ffb69e;}</style><clipPath id="clippath"><rect class="cls-2" x="315.6" y="602.04" width="460.83" height="185.41" rx="33.48" ry="33.48"/></clipPath><clipPath id="clippath-1"><path class="cls-2" d="m1590.74,423.65h-609.02c-33.17,0-60.07,26.89-60.07,60.07v370.35c0,33.17,26.89,60.07,60.07,60.07h609.02c33.17,0,60.07-26.89,60.07-60.07v-370.35c0-33.17-26.89-60.07-60.07-60.07Zm-36.28,399.11c0,20.83-16.89,37.72-37.72,37.72h-498.25c-20.83,0-37.72-16.89-37.72-37.72v-307.74c0-20.83,16.89-37.72,37.72-37.72h498.25c20.83,0,37.72,16.89,37.72,37.72v307.74Zm65.69-217.92h-41.6v-24.09h41.6v24.09Zm0-32.84h-41.6v-24.09h41.6v24.09Zm0-32.84h-41.6v-24.09h41.6v24.09Z"/></clipPath></defs><rect class="cls-8" x="316.09" y="601.49" width="460.83" height="185.41" rx="36.02" ry="36.02"/><path class="cls-4" d="m768.46,895.51l-20.54-54.98c-2.67-7.14-10.61-10.76-17.75-8.09-5.93,2.22-9.42,8.09-8.9,14.1h-350.37c.52-6.02-2.97-11.89-8.9-14.1-7.14-2.67-15.08.96-17.75,8.09l-20.54,54.98c-2.67,7.14.96,15.08,8.09,17.75h0c7.14,2.67,15.08-.96,17.75-8.09l9.75-26.09h373.57l9.75,26.09c2.67,7.14,10.61,10.76,17.75,8.09,7.14-2.67,10.76-10.61,8.09-17.75Z"/><g class="cls-1"><path class="cls-9" d="m658.73,602.24s93.91-13.14,83.7,164.71c-10.21,177.86,75.16-127.93,75.16-127.93l-48-49.3-125.99-31.79,15.13,44.31Z"/></g><path class="cls-6" d="m804.3,678.74h0c-14.59-4.49-30.05,3.7-34.54,18.28l-23.66,76.87h-399.21l-23.66-76.87c-4.49-14.59-19.95-22.77-34.54-18.28h0c-14.59,4.49-22.77,19.95-18.28,34.54l29.54,95.99c0,.32-.02.63-.02.95h0c0,9.08,3.34,17.37,8.84,23.73,5.05,7.54,13.55,12.14,22.6,12.25,1.6.21,3.22.34,4.88.34h420.71c1.68,0,3.32-.12,4.94-.34,8.49-.19,16.46-4.32,21.52-11.11,6.11-6.5,9.86-15.24,9.86-24.87h0c0-.54-.02-1.08-.04-1.61l29.34-95.33c4.49-14.59-3.7-30.05-18.28-34.54Z"/><path class="cls-11" d="m484.06,472.49c7.8,2.23,15.46,4.6,22.02,9.78,17.35,13.69,22.85,37.36,13.07,57.15-9.7,19.61-31.77,29.79-52.95,24.4-21.41-5.45-35.87-25.01-34.82-47.11,1.03-21.66,16.48-39.4,37.76-43.39.84-.16,1.65-.54,2.47-.82h12.45Z"/><path class="cls-7" d="m414.83,699.92c21.55,2.39,42.38,4.7,63.21,7l.05.89c-9.41,3.38-18.83,6.76-28.45,10.21.73,1.5,1.29,2.66,2.04,4.2,11.24-3.96,22.37-7.86,33.48-11.8,12.55-4.45,25.08-8.93,37.62-13.39,13.88-4.93,23.67-2,32.29,9.75,24.25,33.09,48.52,66.16,72.7,99.3,12.05,16.52,3.35,37.89-16.51,40.3-9.81,1.19-17.53-3.02-23.32-10.95-13.28-18.18-26.37-36.5-40.01-54.4-4.73-6.2-6.93-11.8-5.58-20.01,2.59-15.72-9.02-30.34-24.12-32.46-16.73-2.35-31.86,7.95-33.76,24.54-.99,8.6-4.49,12.48-12.43,14.63-8.97,2.43-17.59,6.12-26.42,9.11-17.29,5.85-33.68-5.25-33.47-23.48.2-17.58,1.7-35.15,2.67-53.45Z"/><path class="cls-7" d="m465.31,900.84c1.41-8.91,3.11-19.88,4.87-30.83,6.11-37.99,12.3-75.96,18.31-113.96,1.7-10.75,6.93-18.62,17.46-21.96,9.56-3.03,18.23-.74,25.25,6.5,5.46,5.63,7.86,12.55,6.61,20.36-7.77,48.66-15.58,97.32-23.49,145.96-2.13,13.11-13.86,21.99-26.79,20.69-12.64-1.27-22.23-11.91-22.22-26.75Z"/><path class="cls-10" d="m651.92,653.63h-81.53c-11.78-21.78-23.5-43.59-35.05-65.5-3.93-7.45-9.51-11.14-18.08-11.08-26.22.18-52.45.32-78.67-.07-9.34-.14-15.64,3.39-20.72,10.99-17.72,26.55-26.75,56.22-31.7,87.32-1.61,10.15,5.46,17.44,16.36,18.57,12.81,1.33,25.6,2.83,38.41,4.23,14.57,1.59,29.12,3.43,43.73,4.62,8.9.73,16.34-6.06,17.15-14.56.87-9.1-5.29-16.99-14.51-18.14-11.02-1.37-22.07-2.45-33.11-3.68-10.57-1.18-21.13-2.38-31.99-3.61,3.25-14.02,7.53-27.18,13.48-39.8,1.55-3.28,3.43-1.61,4.95-1.05-4.38,12.18-8.69,24.17-13.15,36.55,2.31.37,3.46.6,4.62.73,18.69,2.09,37.39,4.04,56.06,6.27,13.81,1.65,22.06,15.92,16.93,28.86-.5,1.27-1.03,2.53-1.86,4.58,2.36-.8,3.86-1.32,5.36-1.83,6.44-2.18,12.75-5.16,19.37-6.27,4.81-.81,5.55-2.57,5.43-6.73-.26-9.12-.08-18.25-.08-27.37.37-.04.74-.07,1.11-.11,3.23,6.01,6.29,12.14,9.69,18.05,1.49,8.34,8.76,14.67,17.52,14.67h90.27c9.84,0,17.82-7.98,17.82-17.82s-7.98-17.82-17.82-17.82Z"/><path class="cls-11" d="m557.54,628.33c4.43,8.24,8.87,16.47,13.32,24.7h81.53c9.84,0,17.82,7.98,17.82,17.82s-7.98,17.82-17.82,17.82h-90.27c-8.76,0-16.03-6.33-17.52-14.67-2.34-4.07-4.52-8.25-6.71-12.42l19.65-33.25Z"/><path class="cls-11" d="m426.86,646.52c-1.56,5.08-2.94,10.27-4.17,15.59,10.86,1.23,21.42,2.43,31.99,3.61,11.04,1.23,22.09,2.31,33.11,3.68,9.21,1.15,15.38,9.04,14.51,18.14-.81,8.5-8.25,15.28-17.15,14.56-14.6-1.19-29.15-3.03-43.73-4.62-12.8-1.4-25.6-2.9-38.41-4.23-10.89-1.13-17.97-8.41-16.36-18.57,1.72-10.81,3.93-21.45,6.83-31.84l33.38,3.67Z"/><path class="cls-5" d="m392.54,646.32s33.01,4.62,33.02,4.62c2.86.37,8.68-23.45,9.38-25.8,3.08-10.4,10.94-26.14-1.71-33.16-12.11-6.72-23.04,8.34-27.93,17.29-1.5,2.76-16.61,36.52-12.76,37.05Z"/><path class="cls-5" d="m560.05,633l-22.16,28.58-5.91-10.64s.65-45.44-4.14-57.9c0,0-.41-11.61,7.49-4.91s24.72,44.86,24.72,44.86Z"/><rect class="cls-3" x="633.32" y="645.91" width="65.56" height="27.49"/><path class="cls-4" d="m1271.55,353.19c-31.86-31.56-61.87-61.25-91.83-90.99-14.7-14.59-29.12-29.45-44.07-43.76-3.88-3.71-9.05-6.46-14.09-8.51-9.36-3.79-14.1-11.2-10.43-19.65,2.32-5.34,10.22-10.68,16.21-11.46,9.99-1.3,14.27,6.38,14.92,16.07.27,4.09.43,9.42,2.91,11.94,45.45,46.1,91.25,91.87,138.16,138.89,26.3-26.54,51.85-52.42,77.52-78.2,27.67-27.78,55.63-55.27,82.96-83.37,4.06-4.18,6.39-10.78,7.74-16.67,2.16-9.42,6.61-15.41,16.71-15.21,8.5.17,14.19,4.33,15.24,13.3,1.13,9.75-2.73,15.94-12.59,18.59-4.37,1.18-9.24,2.97-12.34,6.04-53.2,52.72-106.17,105.67-159.14,158.63-.82.82-1.05,2.24-1.91,4.16,31.42,7.6,53.67,25.23,64.35,57.61h-153.58c9.9-30.62,30.32-48.41,63.27-57.41Z"/><path class="cls-9" d="m1590.13,423h-609.02c-33.17,0-60.07,26.89-60.07,60.07v370.35c0,33.17,26.89,60.07,60.07,60.07h609.02c33.17,0,60.07-26.89,60.07-60.07v-370.35c0-33.17-26.89-60.07-60.07-60.07Zm-36.28,399.11c0,20.83-16.89,37.72-37.72,37.72h-498.25c-20.83,0-37.72-16.89-37.72-37.72v-307.74c0-20.83,16.89-37.72,37.72-37.72h498.25c20.83,0,37.72,16.89,37.72,37.72v307.74Zm65.69-217.92h-41.6v-24.09h41.6v24.09Zm0-32.84h-41.6v-24.09h41.6v24.09Zm0-32.84h-41.6v-24.09h41.6v24.09Z"/><g class="cls-12"><path class="cls-8" d="m1490.98,423.65s158.02,4.01,159.83,337.75c1.81,333.74,35.07-313.55,35.07-313.55l-86.53-51.34-108.37,27.13Z"/></g><path class="cls-6" d="m1063.25,571.28c-1.51.69-2.96,1.47-4.35,2.36-1.08.6-2.15.76-3.22.5-1.07-.27-2.17-1.14-3.3-2.64-.35-.6-.78-1.34-1.3-2.2-.52-.87-1.05-1.79-1.59-2.77-.54-.97-1.06-1.94-1.55-2.88-.5-.95-.94-1.83-1.34-2.65-.72-1.65-1.01-2.79-.88-3.42.13-.63.54-1.27,1.23-1.94,1.78-1.19,3.79-2.34,6.04-3.44,2.25-1.1,4.59-2.17,7.04-3.2,2.45-1.03,4.91-1.97,7.4-2.83,2.48-.85,4.85-1.62,7.11-2.32,1.21-.32,2.18-.23,2.93.29.74.52,1.53,1.52,2.36,3,.99,1.9,1.78,3.55,2.38,4.96.59,1.42,1.17,2.78,1.75,4.08.7,1.58,1.19,3.15,1.48,4.7.28,1.55.22,3.31-.2,5.27-2.26,10.82-4.58,22.15-6.96,34.01-2.38,11.85-4.65,23.63-6.8,35.32,1.56-1.15,3.16-2.13,4.79-2.96,1.63-.82,3.32-1.68,5.09-2.57,2.47-1.11,4.48-.25,6.04,2.57.93,1.61,1.78,3.17,2.55,4.7.77,1.53,1.43,3.1,1.99,4.71.75,1.8,1.01,3.09.8,3.88-.21.79-.89,1.5-2.04,2.11-2.8,1.7-5.78,3.49-8.96,5.34-3.18,1.86-6.06,3.77-8.66,5.73-1.75,1.34-3.14,1.85-4.18,1.54-1.04-.31-2.07-.92-3.08-1.84-1.02-.91-2-1.87-2.96-2.88-.96-1-2.11-2.22-3.46-3.67-.93-1.23-1.83-2.6-2.71-4.11-.87-1.51-1.18-3.45-.93-5.83.39-3.91,1.01-8.78,1.87-14.62.85-5.84,1.83-12.09,2.92-18.77,1.09-6.67,2.29-13.48,3.59-20.43,1.3-6.94,2.63-13.48,3.98-19.61-1.75.96-3.38,1.79-4.89,2.47Z"/><path class="cls-6" d="m1119.1,621.82c-3.3,1.66-6.14,3.41-8.53,5.25-.25,3.88-.43,7.44-.54,10.69-.11,3.25-.22,6.46-.31,9.63-.1,1.67-.4,2.71-.88,3.11-.48.4-1.34.31-2.58-.25-.68-.38-1.46-.79-2.33-1.21-.87-.42-1.75-.95-2.64-1.59-.72-.6-1.34-1.13-1.85-1.59-.51-.46-.95-1.04-1.32-1.75-.37-.71-.68-1.64-.92-2.79-.24-1.15-.38-2.73-.42-4.75.01-4.28.09-8.98.23-14.11.14-5.13.31-10.47.51-16.02.2-5.55.46-11.19.77-16.92.31-5.73.64-11.32.97-16.79.33-5.47.7-10.68,1.09-15.64.4-4.96.81-9.47,1.25-13.53.25-2.08.74-3.83,1.5-5.26.75-1.43,2.13-2.2,4.13-2.32,3.44-.41,6.3-.37,8.58.14,2.28.5,4.45,1.03,6.51,1.58,1.53.51,2.63,1.39,3.3,2.64.67,1.25,1.19,2.96,1.57,5.13,1.04,5.41,2.35,11.81,3.92,19.21,1.57,7.4,3.3,15.23,5.2,23.5,1.9,8.27,3.87,16.71,5.92,25.32,2.04,8.61,4.02,16.81,5.93,24.59.41,1.64.51,2.82.28,3.54-.23.72-.95,1.21-2.17,1.46-1.22.25-2.38.44-3.48.55-1.1.11-2.31-.1-3.62-.66-1.28-.41-2.27-1.09-2.95-2.03-.68-.94-1.4-2.69-2.15-5.23-.78-2.69-1.61-5.59-2.48-8.71-.87-3.12-1.76-6.5-2.66-10.14-3.26,1.65-6.53,3.3-9.83,4.96Zm-1.31-23.18c1.97-.82,3.96-1.59,5.99-2.31-1.54-6.73-3.06-13.33-4.55-19.81-1.49-6.48-2.88-12.85-4.18-19.1-.49,5.95-1.03,12.7-1.6,20.24-.58,7.54-1.1,15.45-1.56,23.72,1.97-1.01,3.93-1.92,5.9-2.74Z"/><path class="cls-6" d="m1165.19,621.39c.42,4.94.92,9.86,1.48,14.77,0,1.5-.15,2.54-.48,3.14-.33.59-1.15.76-2.48.51-1.36-.39-2.7-.79-4.02-1.19-1.32-.4-2.51-1-3.58-1.79-1.07-.79-1.95-1.88-2.65-3.28-.7-1.39-1.12-3.35-1.27-5.87.02-1.73-.12-4.21-.42-7.45-.29-3.24-.69-6.95-1.18-11.12-.49-4.17-1.05-8.63-1.7-13.37-.64-4.74-1.29-9.48-1.93-14.22-.64-4.74-1.26-9.34-1.84-13.79-.58-4.45-1.08-8.4-1.5-11.84-.41-3.44-.68-6.27-.8-8.5-.12-2.22-.07-3.51.16-3.86,1.34-1.85,2.82-3.75,4.44-5.7,1.62-1.95,3.33-3.76,5.12-5.45,1.79-1.68,3.64-3.15,5.55-4.41,1.91-1.26,3.83-2.12,5.76-2.6,1.93-.47,3.8-.47,5.63.02,1.82.49,3.56,1.61,5.2,3.37,2.08,2.42,4.11,5.11,6.11,8.07,2,2.96,3.89,6.77,5.68,11.42,1.77,4.58,2.53,8.87,2.27,12.86-.26,3.99-.9,7.86-1.93,11.59-.84,3.18-2.05,6.33-3.61,9.47-1.56,3.14-3.36,6.15-5.38,9.04-2.03,2.89-4.22,5.62-6.58,8.17-2.36,2.55-4.8,4.8-7.32,6.75.41,5.24.83,10.33,1.25,15.27Zm3.76-48.42c1.79-3.11,3.15-6.18,4.05-9.22.91-3.04,1.39-5.87,1.44-8.51.05-2.64-.27-4.74-.97-6.32-.34-.9-.95-1.53-1.85-1.87-.9-.34-1.95-.35-3.15-.02-1.21.33-2.52.95-3.94,1.88-1.42.93-2.79,2.17-4.12,3.72.16,4.39.39,8.96.7,13.69.31,4.74.63,9.73.97,14.99,2.79-2.45,5.08-5.23,6.88-8.34Z"/><path class="cls-6" d="m1216.1,610.85c.42,4.94.92,9.86,1.48,14.77,0,1.5-.15,2.54-.48,3.14-.33.59-1.15.76-2.48.51-1.36-.39-2.7-.79-4.02-1.19-1.32-.4-2.51-1-3.58-1.79-1.06-.79-1.95-1.88-2.65-3.28-.7-1.39-1.12-3.35-1.27-5.87.02-1.73-.12-4.21-.42-7.45-.29-3.24-.69-6.95-1.18-11.12-.49-4.17-1.06-8.63-1.7-13.37-.64-4.74-1.29-9.48-1.93-14.22-.64-4.74-1.26-9.34-1.84-13.79-.58-4.45-1.08-8.4-1.49-11.84-.41-3.44-.68-6.27-.8-8.5-.12-2.22-.07-3.51.16-3.86,1.34-1.85,2.82-3.75,4.45-5.7,1.62-1.95,3.33-3.76,5.11-5.45,1.79-1.68,3.64-3.15,5.56-4.41,1.91-1.26,3.83-2.12,5.76-2.6,1.93-.47,3.8-.47,5.63.02,1.82.49,3.56,1.61,5.2,3.37,2.08,2.42,4.11,5.11,6.11,8.07,2,2.96,3.89,6.77,5.68,11.42,1.77,4.58,2.53,8.87,2.27,12.86-.26,3.99-.9,7.86-1.93,11.59-.84,3.17-2.05,6.33-3.61,9.46-1.56,3.14-3.36,6.15-5.38,9.04-2.03,2.89-4.22,5.62-6.58,8.17-2.36,2.55-4.8,4.8-7.32,6.75.41,5.24.83,10.33,1.25,15.27Zm3.76-48.42c1.79-3.11,3.14-6.18,4.05-9.22.91-3.04,1.39-5.87,1.44-8.51.05-2.64-.27-4.74-.97-6.32-.34-.9-.95-1.53-1.85-1.87-.9-.34-1.95-.35-3.16-.02-1.21.33-2.52.95-3.94,1.88-1.42.93-2.8,2.17-4.12,3.72.16,4.39.39,8.96.7,13.69.31,4.74.63,9.73.96,14.99,2.79-2.45,5.08-5.23,6.88-8.34Z"/><path class="cls-6" d="m1257.85,517.78c.47.99.76,2.49.87,4.49.14,3.57.37,7.76.69,12.57.32,4.81.69,9.93,1.1,15.35.41,5.43.87,11.07,1.37,16.93.5,5.86,1,11.61,1.49,17.24.49,5.63,1,11.06,1.51,16.28.52,5.22.98,9.92,1.4,14.11.13,1.7.02,2.83-.31,3.38-.34.56-1.17.67-2.52.35-1.36-.39-2.68-.81-3.97-1.26-1.29-.44-2.54-1.07-3.76-1.87-1.3-.85-2.25-1.9-2.84-3.12-.59-1.23-1.07-3.11-1.45-5.66-.51-3.19-1.08-7.2-1.7-12.02-.62-4.82-1.25-10.03-1.89-15.64-.63-5.61-1.28-11.45-1.94-17.54-.66-6.09-1.27-12-1.82-17.74-.55-5.74-1.03-11.13-1.44-16.18-.41-5.05-.73-9.39-.95-13.02-.07-2.16.17-3.52.73-4.09.56-.57,1.54-.69,2.96-.39,1.41.31,2.99.88,4.74,1.72,1.75.84,3.34,1.82,4.77,2.95,1.5,1.11,2.49,2.17,2.96,3.16Z"/><path class="cls-6" d="m1295.84,531.23c-.87-10.17-1.59-19.36-2.16-27.56-.15-2.14.07-3.54.65-4.19.58-.64,1.58-.81,2.99-.51.71.15,1.33.29,1.88.4.55.11,1.11.3,1.69.55.58.26,1.19.58,1.83.97.64.39,1.44.9,2.4,1.53,1.5,1.11,2.5,2.31,2.99,3.6.49,1.29.8,2.97.93,5.04.29,3.92.62,8.27,1.02,13.06.39,4.79.82,9.86,1.29,15.2.47,5.34.98,10.8,1.54,16.39.56,5.58,1.1,11.12,1.63,16.59.53,5.48,1.07,10.78,1.61,15.92.54,5.14,1.04,9.91,1.5,14.31.51,3.57-.64,5.08-3.45,4.54-1.24-.19-2.48-.48-3.72-.86-1.24-.38-2.52-.85-3.83-1.4-2.4-1.08-4.45-3.58-6.16-7.5-1.23-2.67-2.56-5.77-4.01-9.29-1.44-3.53-2.92-7.29-4.42-11.29-1.5-4-3.04-8.15-4.6-12.43-1.56-4.29-3.08-8.53-4.55-12.73.51,5.37,1.02,10.8,1.51,16.28.5,5.49.99,10.76,1.48,15.84.49,5.07.95,9.85,1.39,14.33.44,4.48.87,8.45,1.28,11.88.2,1.68.1,2.75-.29,3.21-.39.46-1.27.49-2.62.09-1.27-.34-2.56-.67-3.86-1-1.31-.33-2.6-1.07-3.89-2.23-1.22-.8-2.12-1.83-2.72-3.09-.6-1.26-1.04-3.14-1.33-5.63-.36-2.47-.8-5.87-1.32-10.19-.52-4.32-1.09-9.18-1.73-14.6-.63-5.42-1.26-11.17-1.89-17.27-.63-6.09-1.23-12.12-1.83-18.07-.6-5.95-1.11-11.62-1.55-17-.44-5.38-.77-10.08-1-14.08-.1-2.3.18-3.81.87-4.51.68-.7,1.69-.89,3.03-.57,1.67.48,3.33.96,4.97,1.45,1.64.49,3.39,1.25,5.25,2.29,1.49.67,2.65,1.66,3.49,2.99.84,1.33,1.69,3.36,2.56,6.11.66,2.11,1.54,4.89,2.63,8.34,1.09,3.45,2.3,7.21,3.63,11.29,1.33,4.08,2.72,8.32,4.16,12.75,1.44,4.43,2.85,8.67,4.21,12.74-1.44-10.95-2.6-21.51-3.46-31.68Z"/><path class="cls-6" d="m1358.61,534.49c-.28.62-1.02.94-2.22.97-3.26-.15-5.88-1.33-7.88-3.54-2-2.21-3.55-5.3-4.67-9.27-.24-.78-.45-1.52-.63-2.23-.19-.71-.37-1.5-.54-2.36-.16-.79-.35-1.58-.54-2.36-.2-.78-.42-1.56-.65-2.34-.44-1.41-.86-2.6-1.24-3.57-.39-.97-.82-1.52-1.3-1.64-.95-.25-1.84.62-2.66,2.63-.82,2.01-1.51,4.76-2.06,8.24-.55,3.49-.96,7.57-1.23,12.24-.27,4.67-.34,9.5-.2,14.5.04,4.19.32,8.52.83,12.99.51,4.47,1.19,8.58,2.05,12.34.85,3.76,1.81,6.92,2.86,9.48,1.05,2.56,2.15,4.05,3.29,4.49.98.4,1.84.09,2.56-.93.73-1.01,1.36-2.49,1.89-4.44.53-1.95.95-4.28,1.25-7.01.3-2.72.5-5.63.61-8.73-2.67.85-4.98.38-6.93-1.43-1.95-1.81-3.81-5-5.58-9.59-.44-1.03-.62-1.9-.54-2.59s.34-1.27.77-1.73c.43-.46.98-.88,1.66-1.24.67-.36,1.42-.74,2.24-1.14,1.52-.99,3.13-1.89,4.84-2.69,1.71-.8,3.17-1.52,4.39-2.15,1.44-.67,2.68-.89,3.74-.66,1.06.23,2.16,1.09,3.29,2.58.78.89,1.55,1.89,2.31,3.01.76,1.12,1.45,2.14,2.09,3.05,1.19,1.78,1.99,3.43,2.38,4.96.39,1.53.64,3.45.74,5.75.14,8.29-.28,15.47-1.28,21.52-1,6.06-2.47,10.9-4.42,14.53-2.66,4.53-6.25,6.58-10.76,6.16-4.02-.22-7.99-1.46-11.91-3.72-1.49-1.04-3.04-2.54-4.64-4.49-1.6-1.95-2.96-4.17-4.07-6.64-1.91-3.8-3.56-8.22-4.94-13.26-1.38-5.04-2.47-10.38-3.26-16.03-.79-5.65-1.3-11.45-1.52-17.4-.22-5.95-.12-11.73.29-17.33.42-5.6,1.17-10.83,2.26-15.71,1.09-4.87,2.54-9.11,4.34-12.71,1.09-2.32,2.54-3.86,4.33-4.61,1.79-.75,3.48-1.1,5.07-1.05,2.26.06,4.67.57,7.24,1.54,2.56.97,4.82,2.38,6.78,4.22,1.84,1.64,3.35,3.58,4.52,5.81,1.17,2.23,2.22,4.83,3.13,7.79.49,1.63.95,3.44,1.41,5.45.45,2.01.87,4.04,1.26,6.09.39,2.06.72,4.03,1,5.92.28,1.89.48,3.5.6,4.82.06,1.71-.06,2.88-.34,3.5Z"/><path class="cls-6" d="m1285.58,674.03c-3.34.55-6.77,1.12-10.29,1.73-1.46,11.17-2.98,22.98-4.55,35.43-1.58,12.45-3.16,24.98-4.74,37.61-1.58,12.63-3.07,25.17-4.46,37.61-1.4,12.45-2.64,24.32-3.73,35.61-.12,2.18-.49,3.67-1.09,4.46-.61.79-1.43,1.12-2.46,1-1.03-.12-2.25-.58-3.64-1.37-1.4-.79-2.95-1.67-4.64-2.64-1.7-.97-3.22-2-4.55-3.1-1.34-1.09-2.46-2.4-3.37-3.92-.91-1.52-1.55-3.37-1.91-5.56-.36-2.18-.36-4.8,0-7.83.36-7.29.97-16.03,1.82-26.23.85-10.2,1.82-20.85,2.91-31.96,1.09-11.11,2.28-22.16,3.55-33.15,1.28-10.99,2.52-20.98,3.73-29.96-2.07.61-4.1,1.16-6.1,1.64-2,.49-3.67,1.03-5.01,1.64-1.82.85-3.31,1-4.46.45-1.16-.55-2.4-2.21-3.73-5.01-1.46-2.79-2.76-6.19-3.92-10.2-1.16-4.01-2.09-7.41-2.82-10.2-.73-2.79-.85-4.67-.36-5.65.48-.97,1.4-1.76,2.73-2.37,4.13-1.46,8.83-2.79,14.11-4.01,5.28-1.21,10.66-2.3,16.12-3.28,5.46-.97,10.84-1.79,16.12-2.46,5.28-.67,9.99-1.12,14.12-1.37,2.06,0,3.61.36,4.65,1.09,1.03.73,1.91,1.88,2.64,3.46,1.46,2.79,2.7,5.86,3.73,9.2,1.03,3.34,1.85,6.59,2.46,9.74.48,2.91.55,4.89.18,5.92-.36,1.03-1.64,1.73-3.82,2.09-2.79.49-5.86,1-9.2,1.55Z"/><path class="cls-6" d="m1378.29,689.69c-1.52,7.95-3.25,16.52-5.19,25.68-1.94,9.17-4.01,18.64-6.19,28.41-2.19,9.78-4.4,19.37-6.65,28.78-2.25,9.41-4.4,18.34-6.46,26.77-2.07,8.44-3.95,15.88-5.65,22.31-1.22,3.88-2.58,6.34-4.1,7.38-1.52,1.03-3.67.76-6.47-.82-2.79-1.58-5.4-3.16-7.83-4.73-2.43-1.58-4.98-3.64-7.65-6.19-2.91-2.67-5.1-6.22-6.56-10.65-1.46-4.43-2.43-8.53-2.91-12.29-2.18-20.4-3.98-42.47-5.37-66.21-1.4-23.74-2.46-48.78-3.19-75.13,0-3.28.24-5.58.73-6.92.48-1.33,1.76-2,3.82-2s3.94.25,5.65.73c1.7.49,3.52,1.4,5.46,2.73,4.49,2.91,7.04,8.38,7.65,16.39.36,6.32.76,13.57,1.18,21.76.42,8.2.91,17,1.46,26.41.55,9.41,1.12,19.28,1.73,29.6.61,10.32,1.28,20.76,2,31.33,5.1-20.88,9.95-42.13,14.57-63.75,4.61-21.61,9.04-42.44,13.3-62.47.48-2.19,1.18-3.67,2.09-4.46.91-.79,1.94-1.03,3.1-.73,1.15.3,2.4.97,3.73,2,1.33,1.03,2.67,2.28,4.01,3.73,1.46,1.34,2.76,2.73,3.92,4.19,1.15,1.46,2.09,3.04,2.82,4.74.73,1.7,1.15,3.61,1.28,5.74.12,2.13-.12,4.58-.73,7.38-.85,5.59-2.03,12.36-3.55,20.31Z"/><path class="cls-6" d="m1382.93,798.34c.85-2.91,1.98-5.34,3.37-7.29,1.4-1.94,3.1-3.22,5.1-3.82,2-.61,4.28-.18,6.83,1.27,2.19,1.09,3.94,2.7,5.28,4.83,1.33,2.13,2.34,4.43,3.01,6.92.67,2.49,1.03,4.98,1.09,7.47.06,2.49-.09,4.71-.46,6.65-.24,1.46-.7,3.16-1.37,5.1-.67,1.94-1.52,3.76-2.55,5.46-1.03,1.7-2.28,3.16-3.73,4.37-1.46,1.21-3.1,1.82-4.92,1.82-3.76.12-6.95-1.88-9.56-6.01-2.61-4.13-3.79-10.02-3.55-17.67.12-3.16.61-6.19,1.46-9.11Zm44.62-149.17c.48,2.31.42,5.1-.18,8.38-1.7,9.59-3.4,19.49-5.1,29.69-1.7,10.2-3.37,20.4-5.01,30.6-1.64,10.2-3.19,20.16-4.64,29.87-1.46,9.72-2.73,18.94-3.82,27.68-.36,3.16-.97,5.13-1.82,5.92-.85.79-2.18.76-4.01-.09-4.01-1.33-7.77-3.7-11.29-7.1-1.82-1.82-3.01-3.79-3.55-5.92-.55-2.12-.58-5.31-.09-9.56.73-8.26,1.7-17.7,2.91-28.32,1.21-10.62,2.49-21.43,3.82-32.42,1.33-10.99,2.73-21.67,4.19-32.06,1.46-10.38,2.79-19.52,4.01-27.41.61-3.76,1.43-6.07,2.46-6.92,1.03-.85,2.7-.61,5.01.73,2.06.97,4.34,2.34,6.83,4.1,2.49,1.76,4.7,3.8,6.65,6.1,1.94,2.19,3.16,4.43,3.64,6.74Z"/></svg>