<?xml version="1.0" encoding="UTF-8"?>
<!-- Generator: Adobe Illustrator 23.0.1, SVG Export Plug-In . SVG Version: 6.00 Build 0)  -->
<svg version="1.1" id="Livello_1" xmlns="http://www.w3.org/2000/svg" xmlns:xlink="http://www.w3.org/1999/xlink" x="0px" y="0px" width="193.856px" height="100px" viewBox="0 0 193.856 100" enable-background="new 0 0 193.856 100" xml:space="preserve">
<g>
	<path fill="#0147AB" d="M93.834,0v0.015H0V100h193.856V0 M189.739,95.882H99.985V4.118h89.754V95.882z"/>
	<path fill="#FFFFFF" d="M20.331,47.787h1.006c3.394,0,7.204-0.636,7.204-4.981c0-4.341-3.81-4.977-7.204-4.977h-1.006    M43.161,69.819H30.234L20.441,54.46h-0.11v15.359H9.956V29.883h15.512c7.891,0,13.874,3.759,13.874,12.287   c0,5.511-3.068,10.279-8.736,11.281L43.161,69.819z"/>
	<path fill="#FFFFFF" d="M52.283,56.263c0,3.437,2.282,6.085,6.198,6.085c3.92,0,6.198-2.648,6.198-6.085   c0-3.342-2.278-6.147-6.198-6.147C54.564,50.116,52.283,52.921,52.283,56.263 M73.997,69.819h-9.632v-3.021h-0.11   c-1.697,2.702-5.028,3.92-8.21,3.92c-8.052,0-13.717-6.725-13.717-14.51c0-7.789,5.566-14.463,13.611-14.463   c3.123,0,6.407,1.166,8.425,3.551v-2.648h9.632V69.819z"/>
	<path fill="#FFFFFF" d="M90.188,32.216c0,2.969-2.435,5.401-5.401,5.401c-2.962,0-5.397-2.432-5.397-5.401   c0-2.966,2.435-5.401,5.397-5.401C87.752,26.815,90.188,29.25,90.188,32.216 M89.606,69.819h-9.632v-27.17h9.632V69.819z"/>
	<path fill="#0147AB" d="M140.023,16.955c0,0.004,0.004,0.007,0.004,0.015c0,3.562-1.108,6.557-3.331,8.967   c-2.238,2.421-5.39,3.62-9.486,3.62c-0.018,0-0.037-0.004-0.055-0.004v9.307h12.653v44.167h15.951V16.955"/>
</g>
</svg>