<?xml version="1.0" encoding="UTF-8"?>
<!-- Generator: Adobe Illustrator 23.0.1, SVG Export Plug-In . SVG Version: 6.00 Build 0)  -->
<svg version="1.1" id="svg2" inkscape:output_extension="org.inkscape.output.svg.inkscape" inkscape:version="0.46" sodipodi:docname="Logo_Rai_2_2010.svg" sodipodi:version="0.32" xmlns:cc="http://creativecommons.org/ns#" xmlns:dc="http://purl.org/dc/elements/1.1/" xmlns:inkscape="http://www.inkscape.org/namespaces/inkscape" xmlns:rdf="http://www.w3.org/1999/02/22-rdf-syntax-ns#" xmlns:sodipodi="http://sodipodi.sourceforge.net/DTD/sodipodi-0.dtd" xmlns:svg="http://www.w3.org/2000/svg" xmlns="http://www.w3.org/2000/svg" xmlns:xlink="http://www.w3.org/1999/xlink" x="0px" y="0px" width="193.856px" height="100px" viewBox="0 0 193.856 100" enable-background="new 0 0 193.856 100" xml:space="preserve">
<g>
	<path fill="#BF2214" d="M148.704,68.094l9.851-9.178c1.631-1.463,3.075-2.918,4.337-4.377c1.265-1.459,2.344-2.988,3.24-4.589   c0.896-1.605,1.569-3.331,2.026-5.182c0.442-1.854,0.669-3.902,0.669-6.147c0-3.481-0.644-6.612-1.934-9.391   c-1.295-2.779-3.057-5.134-5.313-7.072c-2.238-1.938-4.849-3.441-7.826-4.505c-2.973-1.064-6.118-1.602-9.431-1.602   c-3.763,0-7.142,0.593-10.148,1.77c-2.999,1.181-5.558,2.834-7.661,4.97c-2.103,2.132-3.763,4.699-4.97,7.705   c-1.207,3.002-1.865,6.33-1.975,9.976h18.189c-0.172-0.954-0.256-1.851-0.256-2.695c0-2.132,0.589-3.957,1.77-5.471   c1.178-1.518,2.893-2.275,5.134-2.275c1.123,0,2.121,0.241,2.991,0.713c0.867,0.479,1.624,1.112,2.275,1.894   c0.644,0.79,1.134,1.675,1.474,2.655c0.333,0.984,0.505,1.982,0.505,2.988c0,2.922-0.746,5.741-2.231,8.466   c-1.492,2.728-3.16,5.094-5.014,7.116l-25.934,28.213h51.028v-13.98"/>
	<path fill="#BF2214" d="M93.834,0v0.015H0V100h193.856V0 M189.739,95.882H99.985V4.118h89.754V95.882z"/>
	<path fill="#FFFFFF" d="M20.331,47.786h1.006c3.394,0,7.204-0.636,7.204-4.981c0-4.341-3.81-4.977-7.204-4.977h-1.006    M43.161,69.818H30.234L20.441,54.46h-0.11v15.359H9.956V29.882h15.512c7.891,0,13.874,3.759,13.874,12.287   c0,5.511-3.068,10.279-8.736,11.281L43.161,69.818z"/>
	<path fill="#FFFFFF" d="M52.283,56.263c0,3.437,2.282,6.085,6.198,6.085c3.92,0,6.198-2.648,6.198-6.085   c0-3.342-2.278-6.147-6.198-6.147C54.564,50.116,52.283,52.92,52.283,56.263 M73.997,69.818h-9.632v-3.021h-0.11   c-1.697,2.702-5.028,3.92-8.21,3.92c-8.052,0-13.717-6.725-13.717-14.514c0-7.786,5.566-14.459,13.611-14.459   c3.123,0,6.407,1.166,8.425,3.551v-2.648h9.632V69.818z"/>
	<path fill="#FFFFFF" d="M90.188,32.215c0,2.969-2.435,5.401-5.401,5.401c-2.962,0-5.397-2.432-5.397-5.401   c0-2.966,2.435-5.401,5.397-5.401C87.752,26.814,90.188,29.249,90.188,32.215 M89.606,69.818h-9.632v-27.17h9.632V69.818z"/>
</g>
</svg>