<?xml version="1.0" encoding="UTF-8" standalone="no"?>
<svg xmlns:dc="http://purl.org/dc/elements/1.1/" xmlns:cc="http://creativecommons.org/ns#" xmlns:rdf="http://www.w3.org/1999/02/22-rdf-syntax-ns#" xmlns:svg="http://www.w3.org/2000/svg" xmlns="http://www.w3.org/2000/svg" xmlns:sodipodi="http://sodipodi.sourceforge.net/DTD/sodipodi-0.dtd" xmlns:inkscape="http://www.inkscape.org/namespaces/inkscape" width="1000" height="515.46399" version="1.1" id="svg18" sodipodi:docname="Rai_3_logo.svg" inkscape:version="1.0.2 (e86c870879, 2021-01-15)">
  <metadata id="metadata24">
    <rdf:RDF>
      <cc:Work rdf:about="">
        <dc:format>image/svg+xml</dc:format>
        <dc:type rdf:resource="http://purl.org/dc/dcmitype/StillImage"/>
        <dc:title/>
      </cc:Work>
    </rdf:RDF>
  </metadata>
  <defs id="defs22"/>
  <sodipodi:namedview pagecolor="#ffffff" bordercolor="#666666" borderopacity="1" objecttolerance="10" gridtolerance="10" guidetolerance="10" inkscape:pageopacity="0" inkscape:pageshadow="2" inkscape:window-width="1366" inkscape:window-height="705" id="namedview20" showgrid="false" inkscape:zoom="0.84504207" inkscape:cx="485.34483" inkscape:cy="169.72139" inkscape:window-x="-8" inkscape:window-y="-8" inkscape:window-maximized="1" inkscape:current-layer="svg18" inkscape:document-rotation="0"/>
  <g id="g45" transform="matrix(1.4960305,0,0,1.4960305,-801.4782,-273.28124)">
    <path id="rect2" style="opacity:1;fill:#008c00;fill-opacity:1;stroke-width:3.44554" d="M 535.73654,182.6709 H 1204.1721 V 527.22535 H 535.73654 Z"/>
    <rect width="310.099" height="316.99008" x="880.29102" y="196.45308" id="rect4" style="opacity:1;fill:#ffffff;stroke-width:3.44554"/>
    <g id="g60" style="display:inline;opacity:1;fill:#ffffff" transform="matrix(0.66843561,0,0,0.66843561,535.73654,182.6709)">
      <path d="m 156.66217,280.81191 c 29.22406,-5.18932 45.06513,-29.7703 45.06513,-58.17499 0,-43.97265 -30.86278,-63.36431 -71.55796,-63.36431 H 50.144584 v 205.934 H 103.6765 v -79.20539 h 0.54624 l 50.52758,79.20539 h 66.64177 z m -52.98567,-80.571 h 5.18932 c 17.47981,0 37.14459,3.27747 37.14459,25.67347 0,22.39601 -19.66478,25.67347 -37.14459,25.67347 h -5.18932 z" style="font-weight:bold;font-size:273.122px;line-height:1.25;font-family:'Futura Std';-inkscape-font-specification:'Futura Std Bold';text-decoration:none;text-decoration-line:none;text-decoration-color:#000000;letter-spacing:0px;word-spacing:0px;fill:#ffffff;stroke-width:4.26753" id="path47"/>
      <path d="m 306.57387,263.73409 c 20.21103,0 31.95528,14.47547 31.95528,31.68215 0,17.75293 -11.74425,31.40903 -31.95528,31.40903 -20.21103,0 -31.95527,-13.6561 -31.95527,-31.40903 0,-17.20668 11.74424,-31.68215 31.95527,-31.68215 z m 80.02475,-38.5102 h -49.70821 v 13.6561 c -10.37863,-12.29049 -27.3122,-18.29918 -43.42639,-18.29918 -41.51455,0 -70.19236,34.41337 -70.19236,74.56231 0,40.14894 29.22405,74.83543 70.7386,74.83543 16.38732,0 33.59401,-6.28181 42.33391,-20.21103 h 0.54624 v 15.56796 h 49.70821 z" style="font-weight:bold;font-size:273.122px;line-height:1.25;font-family:'Futura Std';-inkscape-font-specification:'Futura Std Bold';text-decoration:none;text-decoration-line:none;text-decoration-color:#000000;letter-spacing:0px;word-spacing:0px;fill:#ffffff;stroke-width:4.26753" id="path49"/>
      <path d="m 467.23472,225.22389 h -49.7082 v 140.11159 h 49.7082 z m -24.8541,-81.66349 c -15.29483,0 -27.85845,12.56362 -27.85845,27.85845 0,15.29483 12.56362,27.85844 27.85845,27.85844 15.29483,0 27.85844,-12.56361 27.85844,-27.85844 0,-15.29483 -12.56361,-27.85845 -27.85844,-27.85845 z" style="font-weight:bold;font-size:273.122px;line-height:1.25;font-family:'Futura Std';-inkscape-font-specification:'Futura Std Bold';text-decoration:none;text-decoration-line:none;text-decoration-color:#000000;letter-spacing:0px;word-spacing:0px;fill:#ffffff;stroke-width:4.26753" id="path51"/>
    </g>
    <g aria-label="23" id="text57" style="font-weight:bold;font-size:445.656px;line-height:1.25;font-family:'Futura Std';-inkscape-font-specification:'Futura Std Bold';text-decoration:none;text-decoration-line:none;text-decoration-color:#000000;letter-spacing:0px;word-spacing:0px;display:inline;opacity:1;fill:#008c00;fill-opacity:1;stroke-width:6.96337" transform="matrix(0.62823707,0,0,0.62823707,150.81399,178.22841)">
      <path d="m 1367.7701,206.26363 c -0.4457,-21.83715 13.3697,-38.77208 35.6525,-38.77208 19.6088,0 34.3155,13.36968 34.3155,33.86986 0,23.17411 -16.0436,36.98945 -38.3264,36.98945 h -8.9132 v 58.38094 c 4.9023,-1.33697 9.8045,-2.67394 15.1523,-2.67394 24.5111,0 46.3483,19.60886 46.3483,45.01126 0,27.18501 -20.0545,45.01125 -46.7939,45.01125 -27.6307,0 -46.7939,-20.94583 -46.7939,-47.68519 h -89.1312 c -0.8913,29.4133 18.2719,64.17447 38.3264,84.67464 27.185,27.63067 61.9462,37.88076 100.2726,37.88076 66.8484,0 130.5772,-37.88076 130.5772,-111.414 0,-34.31551 -19.1632,-75.31586 -54.8156,-84.67464 24.511,-13.81534 35.2068,-42.33732 35.2068,-69.07668 0,-62.8375 -47.2396,-97.598666 -107.4031,-97.598666 -34.3155,0 -64.1745,9.804436 -85.566,28.967636 -21.3915,19.16321 -35.6525,45.90257 -39.2177,81.1094 z" style="fill:#008c00;fill-opacity:1;stroke-width:6.96337" id="path78"/>
    </g>
  </g>
</svg>